<svg xmlns="http://www.w3.org/2000/svg" xmlns:xlink="http://www.w3.org/1999/xlink" width="207" height="69" viewBox="0 0 207 69"><defs><path id="5dyla" d="M105.624 84.727h6.137V59.992h-6.137z"/><path id="5dylb" d="M81.108 87.816V99.56l35.602-11.745z"/><path id="5dylc" d="M32 56.89v52.569l46.648-15.462v-52.56z"/><path id="5dyld" d="M49.804 67.961V59.99h6.138v24.74h-6.138V73.51l-8.589 2.832v8.388h-6.138V59.99h6.138v10.804zM32 56.891v52.568l46.648-15.462v-9.274h-6.203l-7.908-9.37v9.372h-6.138V59.989h6.138v8.54l7.205-8.538h6.868L68.524 71.94l10.124 11.995v-42.5z"/><path id="5dyle" d="M96.6 70.217c3.75.716 6.607 2.389 6.607 6.823 0 4.538-2.596 8.187-10.705 8.187-4.522 0-10.257-.61-11.398-6.287 0 0-.08-.531-.095-.715l6.19-2.04-.004.709c.07 3.32 2.888 3.898 5.307 3.898 2.626 0 4.415-.92 4.415-3.036 0-1.876-1.271-2.388-3.492-2.797l-5.108-.92c-3.578-.65-7.04-1.911-7.04-6.892 0-5.425 3.75-7.643 10.214-7.643 4.06 0 9.994.784 10.824 6.897l-6.001 1.978-.12-1.132c-.345-3.172-2.913-3.513-5.164-3.513-2.309 0-3.81 1.228-3.81 2.866 0 1.296.925 2.013 2.367 2.286z"/><path id="5dylf" d="M121.677 61.054h1.86v3.173h1.647v-7.363h-1.646v3.073h-1.86v-3.073h-1.647v7.363h1.646z"/><path id="5dylg" d="M129 58.478c-.904 0-1.599.265-2.084.791-.476.512-.714 1.226-.714 2.144 0 .92.238 1.637.714 2.151.488.531 1.186.797 2.093.797.923 0 1.623-.262 2.099-.787.46-.505.69-1.226.69-2.161 0-.921-.237-1.637-.71-2.148-.485-.523-1.18-.787-2.088-.787m0 4.947c-.793 0-1.19-.67-1.19-2.012s.397-2.014 1.19-2.014c.8 0 1.199.672 1.199 2.014 0 1.342-.4 2.012-1.2 2.012"/><path id="5dylh" d="M134.344 60.192c.282-.333.62-.499 1.013-.499.187 0 .352.052.495.154a.535.535 0 0 1 .238.446v3.935h1.537v-3.935c0-1.192-.494-1.788-1.48-1.788-.387 0-.748.081-1.085.244-.384.186-.642.44-.775.767l-.1-.891h-1.385v5.603h1.542z"/><path id="5dyli" d="M142.377 59.31c-.305-.507-.756-.762-1.356-.762-.783 0-1.378.284-1.784.853-.355.495-.532 1.152-.532 1.973 0 .763.149 1.392.447 1.887.361.6.897.9 1.608.9.805 0 1.335-.315 1.59-.945v.6c0 .76-.5 1.14-1.495 1.14a4.163 4.163 0 0 1-1.585-.31l-.204 1.006c.612.25 1.27.374 1.975.374.846 0 1.513-.211 2.002-.633.524-.448.786-1.09.786-1.932v-4.836h-1.452zm-.195 3.078c-.13.473-.412.71-.847.71-.412 0-.696-.162-.851-.485-.127-.264-.19-.727-.19-1.388 0-1.209.346-1.814 1.041-1.814.628 0 .942.573.942 1.718 0 .61-.031 1.03-.095 1.26z"/><path id="5dylj" d="M149.337 61.825l.613-.767 1.822 3.173h1.78l-2.579-4.515 2.279-2.848h-1.617l-2.298 3.103v-3.103h-1.647v7.363h1.647z"/><path id="5dylk" d="M156.59 64.36c.923 0 1.623-.262 2.1-.786.459-.505.689-1.226.689-2.162 0-.92-.236-1.636-.71-2.147-.485-.524-1.18-.787-2.087-.787-.905 0-1.599.265-2.084.791-.477.512-.714 1.226-.714 2.143 0 .92.237 1.638.714 2.152.487.531 1.185.796 2.093.796m-.01-4.961c.8 0 1.2.671 1.2 2.013 0 1.342-.4 2.013-1.2 2.013-.793 0-1.19-.67-1.19-2.013 0-1.342.397-2.013 1.19-2.013"/><path id="5dyll" d="M161.925 60.192c.283-.333.62-.499 1.014-.499.186 0 .351.052.494.154a.535.535 0 0 1 .238.446v3.935h1.537v-3.935c0-1.192-.493-1.788-1.48-1.788-.386 0-.748.081-1.085.244-.384.186-.641.44-.775.767l-.1-.891h-1.385v5.603h1.542z"/><path id="5dylm" d="M168.341 64.162c.806 0 1.336-.316 1.59-.945v.6c0 .76-.499 1.14-1.494 1.14-.55 0-1.077-.104-1.585-.311l-.204 1.007c.612.248 1.27.373 1.974.373.847 0 1.515-.211 2.003-.633.523-.447.786-1.09.786-1.932v-4.836h-1.452v.685c-.304-.507-.756-.762-1.356-.762-.784 0-1.378.284-1.785.853-.355.495-.532 1.152-.532 1.973 0 .763.15 1.392.447 1.887.362.6.897.9 1.608.9m.576-4.75c.628 0 .942.573.942 1.718 0 .61-.032 1.03-.095 1.26-.13.472-.412.708-.847.708-.413 0-.696-.161-.852-.484-.127-.264-.19-.727-.19-1.388 0-1.209.347-1.814 1.042-1.814"/><path id="5dyln" d="M178.018 59.801c-.603-.22-.925-.343-.966-.369-.349-.204-.523-.47-.523-.796 0-.485.412-.728 1.236-.728.457 0 .992.08 1.604.24l.176-1.08c-.488-.197-1.112-.296-1.87-.296-.717 0-1.324.153-1.822.46-.59.364-.885.884-.885 1.558 0 .582.15 1.054.452 1.419.264.316.68.59 1.252.82.453.181.762.325.927.43.358.23.537.5.537.806 0 .387-.143.648-.427.786-.19.093-.503.14-.938.14a3.7 3.7 0 0 1-1.636-.384l-.214 1.145c.596.25 1.31.374 2.14.374 1.853 0 2.779-.762 2.779-2.286 0-1.045-.607-1.791-1.822-2.239"/><path id="5dylo" d="M183.283 64.36c.793 0 1.505-.18 2.136-.537l-.238-.844c-.577.266-1.121.399-1.631.399-.977 0-1.466-.55-1.466-1.65h3.616v-.521c0-.854-.202-1.516-.604-1.986-.428-.494-1.06-.743-1.898-.743-.866 0-1.534.284-2.004.849-.437.528-.656 1.235-.656 2.124 0 .91.23 1.618.69 2.123.475.525 1.16.787 2.055.787m-.085-4.99c.656 0 1.013.516 1.07 1.548h-2.17c.048-1.032.415-1.548 1.1-1.548"/><path id="5dylp" d="M189.367 64.36c.223 0 .503-.048.84-.144.339-.095.59-.197.755-.306l-.181-.93c-.14.086-.357.166-.65.239a3.106 3.106 0 0 1-.744.111c-.857 0-1.285-.63-1.285-1.889 0-1.326.487-1.99 1.46-1.99.492 0 .887.12 1.186.355l.142-.94c-.368-.258-.888-.388-1.56-.388-.917 0-1.63.258-2.142.775-.51.516-.765 1.235-.765 2.16 0 1.964.981 2.947 2.944 2.947"/><path id="5dylq" d="M193.282 64.35c.79 0 1.43-.33 1.921-.992l.096.872h1.414v-5.603h-1.537v3.992c-.254.356-.625.533-1.114.533-.421 0-.633-.253-.633-.757v-3.768h-1.541v3.915c0 1.205.465 1.808 1.394 1.808"/><path id="5dylr" d="M199.678 61.726c0-.597.189-1.056.567-1.375.294-.25.658-.374 1.09-.374v-1.443a1.14 1.14 0 0 0-.3-.03c-.33 0-.632.135-.904.404-.251.249-.415.543-.49.882v-1.165h-1.5v5.603h1.537z"/><path id="5dyls" d="M202.338 58.067h1.546v-1.199h-1.546z"/><path id="5dylt" d="M202.338 64.23h1.546v-5.603h-1.546z"/><path id="5dylu" d="M205.46 62.365c0 .566.134 1.018.4 1.356.289.372.708.557 1.256.557.572 0 1.026-.09 1.366-.269l-.224-.785c-.114.054-.293.081-.538.081-.272 0-.462-.076-.57-.226-.093-.124-.138-.33-.138-.617v-2.849h1.156v-.986h-1.156v-1.65l-1.552.94v.71h-.732v.986h.732z"/><path id="5dylv" d="M209.236 58.067h1.546v-1.199h-1.546z"/><path id="5dylw" d="M209.236 64.23h1.546v-5.603h-1.546z"/><path id="5dylx" d="M214.661 64.36c.794 0 1.506-.18 2.137-.537l-.238-.844c-.577.266-1.121.399-1.632.399-.977 0-1.465-.55-1.465-1.65h3.616v-.521c0-.854-.202-1.516-.605-1.986-.428-.494-1.06-.743-1.898-.743-.866 0-1.533.284-2.003.849-.438.528-.656 1.235-.656 2.124 0 .91.23 1.618.69 2.123.476.525 1.16.787 2.054.787m-.085-4.99c.657 0 1.014.516 1.071 1.548h-2.17c.048-1.032.414-1.548 1.1-1.548"/><path id="5dyly" d="M221.727 62.524c0-.518-.147-.923-.438-1.218-.235-.236-.622-.436-1.16-.599-.451-.135-.686-.206-.705-.215-.28-.119-.419-.29-.419-.513 0-.198.117-.35.353-.45.167-.075.368-.111.604-.111.548 0 .987.091 1.317.272l.129-.838c-.422-.217-.93-.326-1.523-.326-.574 0-1.043.12-1.408.359-.431.285-.647.702-.647 1.252 0 .476.106.853.319 1.13.203.27.535.475.994.62.441.137.698.225.771.263.292.153.437.36.437.619 0 .248-.139.433-.418.55-.213.09-.457.135-.733.135-.418 0-.855-.121-1.308-.365l-.18.926c.417.23.954.345 1.607.345.695 0 1.246-.128 1.656-.384.5-.31.752-.794.752-1.452"/><path id="5dylz" d="M121.524 74.767c.32 0 .621-.066.903-.197.317-.147.546-.35.686-.609l.094.738h1.385v-3.671c0-1.368-.704-2.052-2.112-2.052-.723 0-1.41.138-2.06.413l.138.881c.436-.233.949-.35 1.538-.35.665 0 .997.229.997.686v.743c-.32-.32-.752-.48-1.293-.48-.62 0-1.125.17-1.517.508-.413.359-.62.844-.62 1.458 0 1.288.62 1.932 1.86 1.932m.643-3.13c.618 0 .927.37.927 1.107 0 .687-.309 1.03-.927 1.03-.632 0-.947-.34-.947-1.02 0-.745.315-1.117.947-1.117"/><path id="5dylA" d="M129.313 68.976c-.387 0-.748.082-1.084.245-.385.185-.643.44-.776.767l-.1-.892h-1.385v5.603h1.542v-4.036c.282-.332.62-.498 1.013-.498.188 0 .353.05.495.153a.536.536 0 0 1 .238.446V74.7h1.537v-3.935c0-1.192-.494-1.788-1.48-1.788"/><path id="5dylB" d="M133.949 74.775c.298 0 .589-.075.871-.225.282-.15.503-.35.662-.6l.096.748h1.414v-7.363h-1.542v2.436c-.317-.53-.82-.796-1.51-.796-.705 0-1.239.318-1.6.954-.293.515-.439 1.149-.439 1.903 0 1.962.683 2.943 2.048 2.943m-.321-4.088c.143-.41.435-.614.875-.614.416 0 .695.208.838.624.085.246.128.632.128 1.156 0 .529-.043.916-.128 1.161-.143.413-.422.62-.838.62-.444 0-.736-.203-.875-.609-.08-.231-.119-.62-.119-1.172 0-.546.04-.936.119-1.166"/><path id="5dylC" d="M141.138 74.702h1.647V67.34h-1.647z"/><path id="5dylD" d="M146.02 70.663c.282-.332.62-.499 1.013-.499.186 0 .351.052.494.154a.535.535 0 0 1 .238.446v3.935h1.537v-3.935c0-1.192-.493-1.788-1.48-1.788-.387 0-.748.082-1.085.245-.384.185-.641.44-.775.767l-.1-.892h-1.385v5.603h1.542z"/><path id="5dylE" d="M153 72.78l-1.365-3.682h-1.675l2.25 5.603h1.128l2.398-5.603h-1.228z"/><path id="5dylF" d="M160.964 74.294l-.237-.843c-.578.265-1.122.398-1.633.398-.976 0-1.464-.55-1.464-1.65h3.615v-.521c0-.853-.201-1.516-.604-1.985-.428-.495-1.061-.743-1.899-.743-.866 0-1.533.283-2.002.848-.439.528-.657 1.235-.657 2.124 0 .91.23 1.619.69 2.124.476.524 1.16.786 2.055.786.793 0 1.505-.18 2.136-.538m-2.222-4.452c.657 0 1.014.516 1.071 1.548h-2.17c.048-1.032.414-1.548 1.1-1.548"/><path id="5dylG" d="M163.524 70c.168-.074.37-.11.604-.11.549 0 .988.09 1.318.272l.128-.839c-.421-.217-.929-.325-1.522-.325-.574 0-1.044.12-1.408.358-.431.286-.647.702-.647 1.253 0 .475.106.853.319 1.13.203.27.534.475.993.619.442.138.698.225.772.263.292.153.437.36.437.619 0 .249-.14.433-.419.55-.212.09-.457.135-.732.135-.419 0-.855-.12-1.309-.364l-.18.925c.418.23.954.345 1.608.345.695 0 1.246-.128 1.655-.383.501-.31.753-.794.753-1.452 0-.518-.147-.924-.439-1.219-.234-.236-.622-.436-1.16-.598-.451-.135-.685-.207-.705-.216-.279-.118-.418-.289-.418-.513 0-.198.117-.349.352-.45"/><path id="5dylH" d="M169.265 73.777c-.272 0-.462-.076-.57-.227-.093-.124-.139-.33-.139-.617v-2.848h1.157v-.987h-1.157v-1.65l-1.55.94v.71h-.733v.987h.732v2.752c0 .565.134 1.018.4 1.356.289.371.707.556 1.256.556.571 0 1.026-.09 1.366-.269l-.224-.785c-.114.055-.294.082-.538.082"/><path id="5dylI" d="M170.729 74.7h1.541v-4.035a1.255 1.255 0 0 1 1.033-.5c.187 0 .348.052.485.155.152.112.229.26.229.445V74.7h1.537v-3.935c.259-.4.613-.6 1.06-.6a.75.75 0 0 1 .471.164.55.55 0 0 1 .223.436V74.7h1.547v-3.963c0-.502-.137-.92-.409-1.251-.295-.358-.687-.527-1.176-.509-.456.02-.813.098-1.07.236-.295.156-.539.428-.733.815-.216-.7-.689-1.05-1.423-1.05-.871 0-1.482.333-1.83 1.002l-.1-.883h-1.385z"/><path id="5dylJ" d="M184.566 73.45c-.577.266-1.121.399-1.632.399-.977 0-1.465-.55-1.465-1.65h3.616v-.521c0-.853-.202-1.516-.605-1.985-.428-.495-1.06-.743-1.898-.743-.866 0-1.533.283-2.003.848-.438.528-.656 1.235-.656 2.124 0 .91.23 1.619.69 2.124.475.524 1.16.786 2.054.786.794 0 1.506-.18 2.137-.538zm-1.984-3.608c.657 0 1.013.516 1.071 1.548h-2.17c.048-1.032.414-1.548 1.1-1.548z"/><path id="5dylK" d="M187.739 70.663c.282-.332.62-.499 1.013-.499.188 0 .353.052.495.154.16.119.238.267.238.446v3.935h1.537v-3.935c0-1.192-.494-1.788-1.48-1.788a2.45 2.45 0 0 0-1.084.245c-.384.185-.643.44-.776.767l-.1-.892h-1.384v5.603h1.54z"/><path id="5dylL" d="M194.799 73.777c-.273 0-.463-.076-.57-.227-.093-.124-.14-.33-.14-.617v-2.848h1.156v-.987h-1.156v-1.65l-1.55.94v.71h-.733v.987h.733v2.752c0 .565.133 1.018.4 1.356.288.371.706.556 1.255.556.571 0 1.026-.09 1.366-.269l-.224-.785c-.114.055-.294.082-.537.082"/><path id="5dylM" d="M199.007 74.702h1.647V67.34h-1.647z"/><path id="5dylN" d="M205.692 68.976c-.388 0-.75.082-1.086.245-.384.185-.641.44-.775.767l-.1-.892h-1.385v5.603h1.542v-4.036c.283-.332.62-.498 1.014-.498.186 0 .351.05.494.153a.537.537 0 0 1 .238.446V74.7h1.537v-3.935c0-1.192-.493-1.788-1.48-1.788"/><path id="5dylO" d="M210.298 73.79c-.213.09-.457.135-.733.135-.418 0-.855-.121-1.308-.364l-.181.925c.418.23.954.345 1.608.345.695 0 1.246-.128 1.656-.383.5-.31.752-.794.752-1.452 0-.519-.147-.924-.439-1.219-.234-.236-.621-.436-1.16-.598-.45-.135-.685-.207-.705-.216-.279-.118-.418-.29-.418-.513 0-.198.117-.349.353-.45.167-.074.368-.11.603-.11.55 0 .988.09 1.318.272l.129-.839c-.422-.217-.93-.325-1.523-.325-.574 0-1.044.12-1.408.358-.431.285-.647.702-.647 1.252 0 .476.106.853.319 1.131.203.269.534.475.994.619.441.137.697.224.771.263.292.153.437.36.437.618 0 .25-.14.434-.418.552"/><path id="5dylP" d="M213.203 68.388v.71h-.732v.987h.732v2.751c0 .566.134 1.018.4 1.357.289.37.708.556 1.256.556.572 0 1.026-.09 1.366-.269l-.224-.785c-.114.054-.293.082-.538.082-.272 0-.462-.076-.57-.227-.093-.124-.138-.33-.138-.617v-2.848h1.156v-.987h-1.156v-1.65z"/><path id="5dylQ" d="M216.984 74.701h1.546v-5.603h-1.546z"/><path id="5dylR" d="M216.984 68.539h1.546v-1.2h-1.546z"/><path id="5dylS" d="M223.128 74.48l-.224-.785c-.114.054-.293.082-.538.082-.272 0-.462-.076-.57-.227-.093-.124-.139-.33-.139-.617v-2.848h1.157v-.987h-1.157v-1.65l-1.55.94v.71h-.733v.987h.732v2.751c0 .566.134 1.018.4 1.357.289.37.708.556 1.257.556.57 0 1.026-.09 1.365-.269"/><path id="5dylT" d="M225.22 74.821c.79 0 1.43-.33 1.921-.992l.096.872h1.413v-5.603h-1.536v3.992c-.254.356-.625.533-1.114.533-.422 0-.633-.253-.633-.757v-3.768h-1.541v3.916c0 1.205.464 1.807 1.394 1.807"/><path id="5dylU" d="M232.423 73.777c-.273 0-.464-.076-.571-.227-.092-.124-.139-.33-.139-.617v-2.848h1.156v-.987h-1.156v-1.65l-1.55.94v.71h-.734v.987h.734v2.752c0 .565.133 1.018.399 1.356.288.371.707.556 1.256.556.571 0 1.026-.09 1.366-.269l-.224-.785c-.114.055-.294.082-.537.082"/><path id="5dylV" d="M238.732 71.678c0-.853-.201-1.515-.605-1.985-.428-.495-1.06-.743-1.898-.743-.866 0-1.534.283-2.003.849-.438.527-.656 1.235-.656 2.123 0 .91.229 1.619.689 2.124.476.524 1.161.786 2.055.786.794 0 1.506-.18 2.137-.538l-.238-.843c-.578.265-1.121.398-1.632.398-.977 0-1.465-.55-1.465-1.649h3.616zm-3.602-.288c.047-1.032.414-1.548 1.099-1.548.656 0 1.013.516 1.07 1.548z"/><path id="5dylW" d="M125.887 81.547c.657.47 1.56.883 2.708 1.208l-.01.02.003.001-.044.1-.349.841-.44-.144c-.223-.08-.354-.139-.406-.183v1.887l.021 2.548h-.897l-.02-.494-4.594.023.022.449-.897.022-.021-4.4-.095.04-.24.128-.434.157-.479-.921c.008-.003.111-.044.158-.06 1.069-.364 2.01-.875 2.806-1.553h-1.23l-1.638.022-.021-.87 3.876-.021-.021-.805h-.04l-1.438.063-1.529.02-.328-.957c.008 0 .92-.049 1.203-.049a171.07 171.07 0 0 1 2.663-.032c1.134 0 2.19-.133 3.138-.396l.43.848a31.784 31.784 0 0 1-3.19.493l.019.836 3.94-.021.02.87-3.016.02c.112.108.237.21.37.31zm-1.314 1.586l2.257-.022a6.664 6.664 0 0 1-.496-.278 5.96 5.96 0 0 1-1.761-1.531zm-2.042 0l1.131-.022-.02-1.797c-.516.714-1.112 1.268-1.773 1.649l-.293.17zm3.947 3.333l-.021-.883-4.576.022v.883zm0-1.726l-.021-.748-4.576.02v.75z"/><path id="5dylX" d="M133.61 84.109l-.002.006-.02-.012c-.273 1.04-.65 1.957-1.12 2.753l.771.86.015-.026c.517-.925.919-1.952 1.184-3.076l-.652-.393z"/><path id="5dylY" d="M133.202 82.43l.652.581.644-.929c-.524-.424-.994-.759-1.424-.99l-.553.805c.09.07.163.125.22.168.192.146.346.268.46.365"/><path id="5dylZ" d="M139.385 83.52v.832l.022 1.232-3.05.022.021.638c0 .226.1.335.306.335h2.788c.208 0 .346-.068.414-.203.068-.14.132-.56.189-1.244l.933.338c-.097 1.022-.242 1.593-.43 1.77-.186.174-.51.261-.961.261h-3.164c-.325 0-.573-.084-.736-.252-.164-.168-.247-.496-.247-.974v-2.264c-.007.005-.011.01-.018.014a.323.323 0 0 1-.071.09 5.444 5.444 0 0 1-.29.231l-.443.303-.012-.018-.007-.01-.55-.836a.163.163 0 0 0 .019-.012l.034-.02c1.007-.584 1.648-1.149 1.912-1.708h-.434l-1.042.022-.021-.88 1.454-.022-.022-1.004-1.228.021-.02-.538-.237.323-.292.438a2.896 2.896 0 0 0-.016-.015h-.002l-.055-.051a13.211 13.211 0 0 0-1.362-1.125l.013-.017.009-.01.6-.769.71.479.652.524v-.031l-.021-.067L136 79.3l-.022-1.036.887-.022.022 1.08 1.69-.022-.021-1.036.866-.022.023 1.08 1.525-.022.022.838-1.57.022.023 1.025 1.66-.021.022.88-1.798.022c.036.076.078.151.126.225.33.473.917.943 1.766 1.378l-.394.94c-.006-.004-.012-.01-.018-.013l-.002.003c-.03-.018-.057-.04-.087-.058a6.152 6.152 0 0 1-1.12-.815zm-2.497-2.33l1.69-.02-.022-.988-1.668.021zm-.293 1.717l-.047.06h.87l1.478-.022-.029-.037a1.308 1.308 0 0 1-.269-.349l-.28-.503-1.236.011c-.03.057-.053.105-.07.144-.084.21-.225.444-.417.696zm1.92 1.85l-.02-.984-2.117.022v.983z"/><path id="5dylaa" d="M145.395 82.476l.022.828h2.81l-.022-.85z"/><path id="5dylab" d="M145.421 84.12l.022 3.707h.791l-.022-.596 1.181-.022.021.514.8-.022-.021-3.603zm.813 2.31v-1.514l1.155-.021.02 1.513z"/><path id="5dylac" d="M148.35 80.254h-3.223l-.022-.87 1.371-.022-.034-.106s-.294-.786-.382-.951l.215-.04.627-.118c.113.172.197.39.274.655l.173.575.98-.016.014.594.005-.005v-.001l.02-.021.503-.55.482.461c.108.11.23.254.374.44l.04-.043c.222-.25.446-.57.642-.957h-.508l-1.14.022-.022-.838 2.656-.022a.62.62 0 0 1 .06.152c.03.103.062.184.094.246l.18.373c.021-.015.04-.034.061-.05.22-.202.435-.461.615-.784l.658.528c-.158.247-.31.433-.45.587l-.424.43.326.345.043-.047c.284-.313.553-.646.77-.996l.666.487-.4.585a4.15 4.15 0 0 1-.47.533l.065.044.333.198a7.988 7.988 0 0 0 .462.262l-.495.826a2.955 2.955 0 0 1-.54-.35l-.352-.283v.128l.021.22-2.876.023-.021-.421c-.013.013-.03.027-.043.042-.08.112-.204.224-.356.343l-.642.495-.456-.593-2.809.007-.021-.838 2.848-.022.021.546c.005-.004.01-.005.015-.008a.19.19 0 0 1 .08-.065 3.87 3.87 0 0 0 .782-.54l-.377-.442a3.922 3.922 0 0 0-.42-.428zm3.55.554a4.274 4.274 0 0 1-.784-1.075c-.28.49-.59.922-.922 1.288h.77l1.122-.021c-.064-.062-.125-.127-.186-.192zm-3.537-.844l.006.006-.005-.006z"/><path id="5dylad" d="M152.853 86.737h-.396a13.494 13.494 0 0 1 .2-.59l.166-.565.016-.05h-.003l.007-.02-.861-.154a18.431 18.431 0 0 1-.23.68l-.25.678-.681.013-.24-.67a4.757 4.757 0 0 0-.365-.735l-.81.293c.21.38.355.707.432.97l.053.099.008.03-1.399.021.021.849h5.483l-.022-.87z"/><path id="5dylae" d="M148.868 85.219h4.55l-.022-2.609-4.55.021zm.839-1.78l2.85-.022.022.984-2.872.021z"/><path id="5dylaf" d="M164.298 80.357l.012-.013a5.28 5.28 0 0 0 .918-1.273l.116-.27-.77-.41c-.261.492-.593.93-.98 1.336-.024.022-.075.08-.08.085z"/><path id="5dylag" d="M159.806 80.15a2.3 2.3 0 0 0 .117.159l.014.018.73-.684c-.433-.529-.829-.946-1.203-1.239l-.63.572.002.001-.016.016c.286.262.618.652.986 1.158"/><path id="5dylah" d="M164.64 83.16a3.656 3.656 0 0 1-.146-.13l2.007-.02-.021-.913-3.4.022h-1.528l.218-.431.142-.374 4.224-.022-.022-.913-2.855.022h-.977c.199-.554.38-1.236.522-2.042l.022-.104h-.002l.004-.022-.917-.055c-.153.799-.363 1.545-.604 2.201l-3.069.022.022.913 1.848-.022h.828l-.205.418-.222.387-2.473.022.022.911 1.096-.02h.737c-.533.575-1.213 1.046-2.026 1.427-.02.009-.037.02-.057.027v.001l-.019.01.538.91c.42-.216.868-.509 1.33-.873.02-.016.058-.071.062-.074l.022.414.987-.021h.477c-.303.547-.685.98-1.136 1.285-.411.28-.952.51-1.603.716-.06.016-.115.035-.178.05l.004.006-.022.007.576.925.016-.005c.896-.28 1.637-.7 2.201-1.252.564-.551.94-1.131 1.1-1.71l1.815-.022v.262c0 .67-.048 1.127-.143 1.358-.094.227-.272.338-.547.338-.128 0-.393-.015-.799-.043-.049 0-.232.016-.24.018l.287.957c.141.014.33.022.57.022.714 0 1.193-.154 1.42-.46.226-.302.341-.765.341-1.374 0-.398.002-.788-.002-1.163.002-.102.004-.207.008-.307.197.165.413.317.644.453l.693.347.43-.85.022-.04h-.001l.01-.02c-.888-.403-1.558-.804-2.03-1.17zm-2.759.822h-1.64l.448-.498c.12-.144.231-.296.332-.454l2.346-.008c.241.331.52.622.832.847.035.029.067.064.103.092z"/><path id="5dylai" d="M177.178 85.64c.819-.956 1.367-2.256 1.628-3.863.018-.09.037-.2.044-.344 0-.006.001-.01.003-.016h-.002l.002-.022-1.256.022h-.403c.12-.362.23-.811.324-1.337l.212-1.343.037-.21h-.003l.003-.022-6.377.021.021.954 2.018-.021v.774c0 .58-.107 1.299-.317 2.131-.21.831-.504 1.608-.873 2.31-.3.561-.648 1.08-1.035 1.54-.52.615-.627.686-.666.724l.662.867c.054 0 .202-.114.869-1.003.495-.663.885-1.302 1.156-1.9.217-.48.434-1.11.626-1.86.049-.171.098-.346.147-.533.321.863.606 1.504.847 1.903.242.403.544.82.898 1.209-.58.522-1.436.894-2.552 1.134l-.242.052.44 1.012.018-.004c1.28-.3 2.308-.806 3.028-1.502.736.655 1.53 1.152 2.388 1.47l.462-.855.068-.119h-.004l.011-.02c-1.244-.474-2.18-1.148-2.182-1.15m-.712-.679a7.614 7.614 0 0 1-1.102-1.56c-.305-.57-.648-1.41-1.018-2.485l.048-1.435 1.861-.021h.386l-.249 1.2c-.08.396-.225.89-.412 1.48l-.067.189h.007l-.007.021 1.445-.021h.381c-.294 1.094-.71 1.952-1.209 2.556l-.064.076"/><path id="5dylaj" d="M186.08 83.973c.172-.049.358-.114.583-.22l-.022-.778v-.207l-.006.002v-.023l-1.012.312-.106.028-.022-1.921 1.216-.022-.022-.954-1.172.022-.022-2.065-.935.021.021 2.022-1.302.022.022.954 1.259-.022.018 2.116-.664.115c-.179.028-.321.045-.426.052l-.275.043h-.008l-.021.004.217 1.086.616-.115c.26-.045.432-.083.514-.132a.614.614 0 0 0 .029-.009v2.1c0 .21-.098.313-.296.313l-.725-.004-.161-.006v.005h-.021l.242 1.053h.809c.493 0 .795-.088.922-.27.124-.178.187-.454.187-.82l-.016-2.545z"/><path id="5dylak" d="M190.091 86.065c-.05-.028-.105-.054-.153-.083a5.74 5.74 0 0 0 1.425-2.577l-.022-.838-4.444.021.022.912 2.583-.021h.883a5.146 5.146 0 0 1-1.118 1.841c-.016.016-.03.034-.045.048l-.125-.135a11.599 11.599 0 0 1-1.208-1.49l-.694.446-.036.023-.018.012c.09.126.161.226.212.304.325.465.62.85.877 1.144l.2.186.031.034c-.537.35-1.284.64-2.216.892-.088.022-.167.046-.259.066l.003.005-.02.006.536.937.016-.006c1.164-.369 2.05-.775 2.606-1.207a7.967 7.967 0 0 0 2.503 1.185l.354-.814.065-.148a10.065 10.065 0 0 1-1.958-.743"/><path id="5dylal" d="M190.118 81.896c.167.175.432.264.79.264l1.04-.022-.021-.901h-.692c-.173 0-.287-.03-.34-.088-.054-.058-.082-.208-.082-.446l-.02-2.272-3.339.021v.922c0 .532-.073.969-.215 1.3-.137.318-.436.652-.886 1.02l-.032.026h.001l-.016.014.735.77.015-.015c.48-.41.824-.833 1.02-1.253.196-.42.296-.948.296-1.57l-.022-.312 1.517-.023v1.572c0 .484.084.819.251.993"/><path id="5dylam" d="M199.063 86.245c-.62.222-1.537.445-2.732.693-.107.02-.339.07-.346.07l.42.8s.25-.051.334-.066c.856-.179 1.754-.416 2.679-.728.077-.024.151-.043.23-.068l-.006-.007.022-.007z"/><path id="5dylan" d="M202.209 86.296c.965.167 1.817.364 2.532.586l-.009.02s.002 0 .002.002l-.027.065-.326.83-1.489-.435a24.25 24.25 0 0 0-1.305-.292l-.367-.084.011-.02-.005-.002.094-.158.323-.574h-4.619l-.022-4.346 1.83-.022-.166-.204-.293-.326.317-.119c.976-.38 1.666-.888 2.057-1.538h-.285l-.564.02c-.036.038-.074.072-.099.099-.204.195-.354.33-.445.4l-.586.45-.598-.673.018-.012v-.002l.047-.033c.584-.429.993-.748 1.21-.972.228-.233.452-.506.667-.809l.813.276-.01.018.003.002-.03.041-.135.233-.173.218h1.417l2.276-.021.021.775c-.222.286-.538.59-.94.918-.065.048-.151.118-.26.209l-.548-.557.018-.013-.002-.002.04-.029.37-.283.296-.253h-.69l-.93.02-.077.158c.516.443.952.774 1.29.954.335.18.953.337 1.838.47l-.005.02h.002l-.019.073-.191.834-.42-.079-.35-.093v.852l.02 3.346h-1.995zm-1.287-5.46a4.162 4.162 0 0 1-1.63 1.052h1.927l2.02-.021c-.057-.017-.112-.041-.168-.061-.676-.202-1.309-.632-1.887-1.258zm-3.002 2.256l4.93-.022-.022-.48-4.908.021zm0 1.167l4.93-.023-.022-.516-4.908.022zm4.93 1.209l-.022-.575-4.908.022v.575z"/><path id="5dylao" d="M196.212 81.953c.997-.341 1.681-.645 2.042-.928l-.215-.649-.045-.15-.005.001-.007-.02c-.393.242-.98.474-1.744.688-.083.021-.185.05-.323.111l.275.954z"/><path id="5dylap" d="M196.216 79.07l.003.001-.013.018.721.408c.4.229.667.4.794.51l.018.016.549-.803c-.378-.327-.888-.617-1.54-.855l-.468.623z"/><path id="5dylaq" d="M214.427 80.636l-.521-.46-.318.345c-.088.097-.2.195-.304.293a2.217 2.217 0 0 0-.398-.316l-.354-.23-.413.41-.062.057.002.002-.016.016.63.46-.05.027c-.242.137-.924.36-.931.365l.433.699a.496.496 0 0 1 .093-.041c.48-.195.82-.376.976-.54l.23.25.283.374.581-.51.028-.023-.001-.002.016-.013-.27-.284-.25-.214-.018-.017.298-.272z"/><path id="5dylar" d="M211.706 79.514l-.136.052.482.696.613-.323c.23-.118.402-.221.483-.308l.501.578.546-.465.018-.013h-.001l.017-.015-.27-.304-.22-.187-.011-.012.277-.25c.084-.07.179-.174.28-.336l-.504-.459c-.148.197-.545.551-.545.551l-.425-.346-.344-.217-.414.428-.083.087.618.44.012.01c-.05.053-.192.124-.423.213zm.91-.38l-.003.003z"/><path id="5dylas" d="M214.526 78.442l.021.838 1.44-.022h.03l.011.534-1.396.022.02.723 1.31-.022h.025l.012.554-1.367.022.02.734 1.284-.022h.013l.012.66-5.862.02-.04-.64v-.018l1.434-.022-.022-.734-1.411.021-.03-.544v-.009l1.463-.022-.022-.723-1.449.02-.04-.5c.712-.045 1.24-.13 1.594-.273.02-.008.048-.014.068-.021l-.001-.004c.005-.002.014-.003.02-.007l-.438-.764c-.483.152-1.173.25-2.073.315l.114 3.81.003.094-.492.022.02 2.335.86-.021-.022-1.486 6.756-.023.022 1.53h.867l-.021-2.357-.46.022h-.009l.073-3.97.001-.072v-.022z"/><path id="5dylat" d="M217.445 85.354l-1.994.022h-1.839a11.994 11.994 0 0 0 1.999-.89l-.022-.776-5.255.021.022.787 2.003-.022h1.87l-.85.241c-.367.104-.608.164-.736.2l.022.417-4.1.022.021.849 4.057-.022v.419c0 .19-.084.282-.257.282l-1.288-.014h-.022l.232.842h1.386c.582 0 .877-.299.877-.89l-.022-.617 3.917-.022z"/><path id="5dylau" d="M229.056 84.22l.022 3.604h-.907l-.021-.367-4.834.021.022.324-.916.022-.021-3.581zm-.885 2.52l-.021-.602-4.812.02v.604zm0-1.232l-.021-.554-4.812.022v.554z"/><path id="5dylav" d="M226.153 78.19c1.165.754 2.496 1.433 3.969 2.023l-.343.97-.31-.12v.818l.022 1.903h-7.472l-.022-2.733-.1.05-.224.136-.01-.02-.011-.025-.403-.877a.157.157 0 0 0 .02-.009l.006-.002c1.706-.726 3.026-1.425 3.932-2.109zm-2.148 4.85l-.288-.545a4.299 4.299 0 0 0-.285-.479l.018-.012.512-.325-1.095.01v1.362zm1.268-.012l-.02-1.36-1.234.011c.138.132.252.281.363.448l.307.482-.637.43zm2.14.016l-.004-.003-.643-.441c.047-.075.146-.215.291-.45l.3-.471-1.23.01v1.366zm1.225-.016l-.02-1.36-1.23.01.619.317-.298.595a6.025 6.025 0 0 1-.27.442l-.005.006zm-1.207-2.836l.022.314-3.406.022-.02-.507c-.46.301-1.054.616-1.764.935h3.35l3.638-.02-.896-.4-.924-.488zm-.401-.436c-.064-.035-.124-.075-.188-.11a8.113 8.113 0 0 1-1.12-.694 8.603 8.603 0 0 1-1.106.718c-.051.025-.119.062-.197.108h1.216z"/></defs><g><g transform="translate(-32 -41)"><g><g><use fill="#02205d" xlink:href="#5dyla"/></g><g><use fill="#bf0018" xlink:href="#5dylb"/></g><g><use fill="#fff" xlink:href="#5dylc"/></g><g><use fill="#02205d" xlink:href="#5dyld"/></g><g><g><use fill="#02205d" xlink:href="#5dyle"/></g><g><use fill="#02205d" xlink:href="#5dylf"/></g><g><use fill="#02205d" xlink:href="#5dylg"/></g><g><use fill="#02205d" xlink:href="#5dylh"/></g><g><use fill="#02205d" xlink:href="#5dyli"/></g><g><use fill="#02205d" xlink:href="#5dylj"/></g><g><use fill="#02205d" xlink:href="#5dylk"/></g><g><use fill="#02205d" xlink:href="#5dyll"/></g><g><use fill="#02205d" xlink:href="#5dylm"/></g><g><use fill="#02205d" xlink:href="#5dyln"/></g><g><use fill="#02205d" xlink:href="#5dylo"/></g><g><use fill="#02205d" xlink:href="#5dylp"/></g><g><use fill="#02205d" xlink:href="#5dylq"/></g><g><use fill="#02205d" xlink:href="#5dylr"/></g><g><use fill="#02205d" xlink:href="#5dyls"/></g><g><use fill="#02205d" xlink:href="#5dylt"/></g><g><use fill="#02205d" xlink:href="#5dylu"/></g><g><use fill="#02205d" xlink:href="#5dylv"/></g><g><use fill="#02205d" xlink:href="#5dylw"/></g><g><use fill="#02205d" xlink:href="#5dylx"/></g><g><use fill="#02205d" xlink:href="#5dyly"/></g><g><use fill="#02205d" xlink:href="#5dylz"/></g><g><use fill="#02205d" xlink:href="#5dylA"/></g><g><use fill="#02205d" xlink:href="#5dylB"/></g><g><use fill="#02205d" xlink:href="#5dylC"/></g><g><use fill="#02205d" xlink:href="#5dylD"/></g><g><use fill="#02205d" xlink:href="#5dylE"/></g><g><use fill="#02205d" xlink:href="#5dylF"/></g><g><use fill="#02205d" xlink:href="#5dylG"/></g><g><use fill="#02205d" xlink:href="#5dylH"/></g><g><use fill="#02205d" xlink:href="#5dylI"/></g><g><use fill="#02205d" xlink:href="#5dylJ"/></g><g><use fill="#02205d" xlink:href="#5dylK"/></g><g><use fill="#02205d" xlink:href="#5dylL"/></g><g><use fill="#02205d" xlink:href="#5dylM"/></g><g><use fill="#02205d" xlink:href="#5dylN"/></g><g><use fill="#02205d" xlink:href="#5dylO"/></g><g><use fill="#02205d" xlink:href="#5dylP"/></g><g><use fill="#02205d" xlink:href="#5dylQ"/></g><g><use fill="#02205d" xlink:href="#5dylR"/></g><g><use fill="#02205d" xlink:href="#5dylS"/></g><g><use fill="#02205d" xlink:href="#5dylT"/></g><g><use fill="#02205d" xlink:href="#5dylU"/></g><g><use fill="#02205d" xlink:href="#5dylV"/></g><g><use fill="#02205d" xlink:href="#5dylW"/></g><g><use fill="#02205d" xlink:href="#5dylX"/></g><g><use fill="#02205d" xlink:href="#5dylY"/></g><g><use fill="#02205d" xlink:href="#5dylZ"/></g><g><use fill="#02205d" xlink:href="#5dylaa"/></g><g><use fill="#02205d" xlink:href="#5dylab"/></g><g><use fill="#02205d" xlink:href="#5dylac"/></g><g><use fill="#02205d" xlink:href="#5dylad"/></g><g><use fill="#02205d" xlink:href="#5dylae"/></g><g><use fill="#02205d" xlink:href="#5dylaf"/></g><g><use fill="#02205d" xlink:href="#5dylag"/></g><g><use fill="#02205d" xlink:href="#5dylah"/></g><g><use fill="#02205d" xlink:href="#5dylai"/></g><g><use fill="#02205d" xlink:href="#5dylaj"/></g><g><use fill="#02205d" xlink:href="#5dylak"/></g><g><use fill="#02205d" xlink:href="#5dylal"/></g><g><use fill="#02205d" xlink:href="#5dylam"/></g><g><use fill="#02205d" xlink:href="#5dylan"/></g><g><use fill="#02205d" xlink:href="#5dylao"/></g><g><use fill="#02205d" xlink:href="#5dylap"/></g><g><use fill="#02205d" xlink:href="#5dylaq"/></g><g><use fill="#02205d" xlink:href="#5dylar"/></g><g><use fill="#02205d" xlink:href="#5dylas"/></g><g><use fill="#02205d" xlink:href="#5dylat"/></g><g><use fill="#02205d" xlink:href="#5dylau"/></g><g><use fill="#02205d" xlink:href="#5dylav"/></g></g></g></g></g></svg>